HIERARCHY
ROOT Hips
{
	OFFSET -0.179506 -22.333345 2.821913
	CHANNELS 6 Xposition Yposition Zposition Zrotation Yrotation Xrotation 
	JOINT LeftUpLeg
	{
		OFFSET 6.951974 -9.140623 -0.681533
		CHANNELS 3 Zrotation Yrotation Xrotation
		JOINT LeftLeg
		{
			OFFSET 3.427654 -37.519855 -0.449580
			CHANNELS 3 Zrotation Yrotation Xrotation
			JOINT LeftFoot
			{
				OFFSET -1.359570 -39.796059 -4.369333
				CHANNELS 3 Zrotation Yrotation Xrotation
				JOINT LeftToe
				{
					OFFSET 2.635814 -5.579078 11.928840
					CHANNELS 3 Zrotation Yrotation Xrotation
					End Site
					{
						OFFSET 0.000000 0.000000 0.000000
					}
				}
			}
		}
	}
	JOINT RightUpLeg
	{
		OFFSET -6.767048 -9.052170 -0.431982
		CHANNELS 3 Zrotation Yrotation Xrotation
		JOINT RightLeg
		{
			OFFSET -3.829005 -38.256897 -0.885003
			CHANNELS 3 Zrotation Yrotation Xrotation
			JOINT RightFoot
			{
				OFFSET 1.577377 -39.841461 -4.231180
				CHANNELS 3 Zrotation Yrotation Xrotation
				JOINT RightToe
				{
					OFFSET -2.537174 -4.814398 12.334795
					CHANNELS 3 Zrotation Yrotation Xrotation
					End Site
					{
						OFFSET 0.000000 0.000000 0.000000
					}
				}
			}
		}
	}
	JOINT Spine
	{
		OFFSET -0.253288 10.896323 -2.669631
		CHANNELS 3 Zrotation Yrotation Xrotation
		JOINT Spine1
		{
			OFFSET 0.548704 13.518043 0.109247
			CHANNELS 3 Zrotation Yrotation Xrotation
			JOINT Spine2
			{
				OFFSET 0.145701 5.292222 2.542457
				CHANNELS 3 Zrotation Yrotation Xrotation
				JOINT Neck
				{
					OFFSET -0.277840 21.387037 -4.285703
					CHANNELS 3 Zrotation Yrotation Xrotation
					JOINT Head
					{
						OFFSET 0.515184 6.496960 5.134897
						CHANNELS 3 Zrotation Yrotation Xrotation
						End Site
						{
							OFFSET 0.000000 0.000000 0.000000
						}
					}
				}
				JOINT LeftShoulder
				{
					OFFSET 7.884473 12.174932 -3.408961
					CHANNELS 3 Zrotation Yrotation Xrotation
					JOINT LeftArm
					{
						OFFSET 9.097692 3.046888 -0.886815
						CHANNELS 3 Zrotation Yrotation Xrotation
						JOINT LeftForeArm
						{
							OFFSET 25.961220 -1.277207 -2.745643
							CHANNELS 3 Zrotation Yrotation Xrotation
							JOINT LeftHand
							{
								OFFSET 24.923361 0.898606 -0.117091
								CHANNELS 3 Zrotation Yrotation Xrotation
								End Site
								{
									OFFSET 0.000000 0.000000 0.000000
								}
							}
						}
					}
				}
				JOINT RightShoulder
				{
					OFFSET -8.175920 11.883285 -3.861528
					CHANNELS 3 Zrotation Yrotation Xrotation
					JOINT RightArm
					{
						OFFSET -9.601238 3.255117 -0.914307
						CHANNELS 3 Zrotation Yrotation Xrotation
						JOINT RightForeArm
						{
							OFFSET -25.374195 -1.332924 -2.140099
							CHANNELS 3 Zrotation Yrotation Xrotation
							JOINT RightHand
							{
								OFFSET -25.529810 0.777228 -0.555919
								CHANNELS 3 Zrotation Yrotation Xrotation
								End Site
								{
									OFFSET 0.000000 0.000000 0.000000
								}
							}
						}
					}
				}
			}
		}
	}
}
MOTION
Frames: 10
Frame Time: 0.033333
-3.382960 102.925484 0.346338 175.521586 -47.137191 176.106226 -7.175408 -5.005404 -4.891636 -3.725800 -4.735081 14.386447 4.216491 17.875091 -11.559409 7.466372 1.007695 -0.637934 -0.824857 -2.165681 -14.322764 1.263103 -9.707255 76.470496 4.388181 -6.260931 8.368702 5.653091 -1.063479 0.751446 -4.511299 4.244967 2.868987 4.043590 -1.814249 4.128703 -1.123806 3.359359 -2.301142 -4.889315 12.022089 2.321246 -2.587666 13.310828 -0.734959 -14.950069 5.795364 0.836006 -24.319547 0.108431 -7.850821 17.623570 -29.674266 -34.900945 13.810139 -3.084731 -12.937052 13.577818 -0.209373 -3.116204 41.333532 2.940788 12.049553 -49.143638 65.482864 -38.285519 -1.802684 6.200305 -9.309095 
-4.290062 103.411682 -2.496625 172.895744 -54.143319 177.110430 -7.800932 -5.183447 0.076243 -3.923739 -10.503300 11.215870 3.633610 15.225608 -10.595315 6.994663 1.122614 -0.328793 -1.769876 -1.565771 -20.927346 0.109464 -12.070015 81.682556 2.804904 -7.014005 5.061203 5.319607 -1.182997 0.657690 -5.084719 3.080672 4.426195 3.786570 -0.913557 3.795061 -1.804936 3.455635 -2.314923 -4.660900 9.255841 3.432129 -2.505776 9.307870 -0.569926 -16.161003 7.580811 0.690659 -26.165581 1.322744 -7.995255 21.274634 -31.091372 -39.003507 14.547387 -2.672923 -14.537171 13.926875 -0.388738 -3.630162 40.619907 2.334030 9.623121 -62.333316 63.494320 -52.373513 -1.184645 6.259591 -10.686574 
-6.518280 103.670708 -4.698926 171.573935 -61.909053 178.780764 -7.395645 -6.282239 1.753703 -4.518524 -15.778707 11.834091 2.631153 12.054426 -11.127192 6.375383 1.094520 -0.099954 -3.212602 -1.274878 -25.621874 -1.012851 -13.158569 79.597412 2.148577 -7.513967 2.681576 4.978518 -1.182176 0.604807 -5.159939 2.686646 5.262339 3.494155 -0.070889 3.673919 -2.132370 3.463396 -2.628699 -5.294707 5.935638 4.724946 -2.008131 6.110946 -0.171830 -17.375862 9.049120 0.623271 -29.331105 0.520899 -7.825563 25.660913 -31.318702 -43.748802 16.294491 -2.168658 -18.809941 13.896181 -0.556041 -3.545234 40.269051 1.791359 8.537390 -74.963705 61.996383 -65.624928 -0.998605 6.943068 -14.414428 
-7.759005 103.604347 -7.250048 167.396750 -70.014205 -177.007975 -6.447632 -6.639667 2.788393 -4.980497 -20.521933 12.424440 1.663028 7.866097 -11.954846 5.820298 1.078503 0.172157 -4.934310 -0.874225 -27.730173 -0.721799 -12.326672 74.636219 1.999857 -8.860720 0.232078 4.935401 -1.375599 0.600075 -4.430181 2.214300 6.826720 2.716099 1.340502 2.987270 -2.572740 2.890460 -2.593729 -4.905605 1.871671 5.542782 -1.955040 2.154010 0.240547 -19.128157 9.782149 0.481940 -33.121177 -0.317194 -6.954054 26.518580 -30.530666 -42.786535 17.100711 -1.240447 -20.442831 13.709081 -0.688765 -3.484387 40.640807 0.360827 7.082981 -86.494599 59.062296 -77.158024 -3.165411 6.808377 -19.453373 
-7.672006 103.435959 -8.746649 158.869277 -79.420050 -168.617206 -4.949714 -8.011800 1.445845 -5.873153 -23.382276 14.892954 0.238569 3.194347 -12.591018 5.519649 1.004769 0.100345 -6.223571 0.465009 -26.469373 -0.126598 -7.775364 64.628347 2.648124 -9.400406 -2.693197 4.928985 -1.359679 0.574375 -4.465706 2.589918 7.282383 2.201235 1.667614 2.905681 -2.534754 2.687572 -2.270569 -5.005716 -0.831731 5.952551 -1.932631 -1.011808 0.587374 -18.836946 11.024202 0.501652 -34.827779 -0.932262 -7.296541 28.278667 -32.029282 -42.940365 16.727734 -2.514683 -22.084678 12.778292 -2.035672 -3.631076 39.827155 0.451658 5.566973 -96.361499 56.501557 -85.362187 -0.563503 7.851597 -21.262508 
-7.480667 103.021980 -10.204415 109.176780 -86.341105 -119.152906 -3.408292 -9.652525 -1.856577 -8.264077 -23.991073 19.906666 -0.509616 -0.472393 -12.945458 5.224518 0.577627 -0.239793 -7.829289 0.935031 -25.577610 0.809429 -3.976723 59.720400 3.000973 -9.151184 -3.433611 5.049214 -1.029467 0.456626 -4.399649 3.455684 7.667988 1.755726 2.024802 2.852922 -2.623886 2.690637 -2.390459 -5.205269 -3.359707 6.473111 -1.197063 -4.685949 0.997076 -18.156639 12.236058 0.157479 -34.436878 -1.562946 -7.456134 31.491086 -34.283986 -44.898701 15.994867 -3.718719 -23.613220 11.886929 -3.139279 -3.899286 38.408126 0.317560 4.677401 -104.695636 53.414392 -92.191384 2.165013 8.773978 -23.327462 
-7.290168 102.476257 -11.731668 44.264601 -84.520576 -54.260750 -2.121704 -10.127796 -5.238495 -10.224907 -22.431158 23.518938 -1.168581 -3.434674 -12.214460 4.423485 0.463762 -0.192149 -8.871577 -0.011864 -23.234111 0.557643 -2.727266 55.655858 2.944449 -9.153239 -5.128663 4.793673 -1.040940 0.238431 -4.073304 4.551446 8.086757 0.696089 3.050230 2.489072 -2.815531 2.764819 -2.531247 -5.066666 -6.060941 6.638223 -0.357438 -7.327330 1.219807 -18.814691 13.676940 -0.660447 -33.697518 0.115075 -7.778779 33.525814 -33.284223 -47.999875 17.334290 -2.577035 -26.063002 11.378813 -3.272203 -4.196587 37.096204 0.446098 3.319289 -110.235577 50.374665 -98.312942 1.831606 9.033051 -26.471327 
-6.982277 102.038734 -13.461170 24.332547 -81.833233 -34.055663 -0.533195 -10.255266 -7.213113 -9.526002 -22.582125 23.157894 -2.024850 -3.908175 -11.706888 3.703376 0.271084 0.042701 -8.617605 -0.775060 -21.391720 -0.218376 -3.450429 52.454857 2.395486 -9.199771 -6.684030 4.902504 -1.159827 0.222114 -3.816014 5.287490 8.497013 -0.163344 3.969731 2.192912 -2.633446 2.966660 -2.737178 -5.125194 -8.380973 6.885611 0.674033 -9.416391 0.627124 -18.892326 14.514572 -1.273218 -33.335932 1.545415 -7.980938 34.437624 -32.294386 -48.963739 19.754135 -1.702693 -25.235744 10.252594 -2.945551 -4.245329 36.518439 0.338605 2.545372 -114.549317 49.066987 -102.143387 -1.074388 8.860704 -27.032022 
-6.740468 101.789108 -15.353498 18.843786 -79.695454 -27.736213 0.825519 -9.755592 -8.076894 -6.616904 -22.461506 18.318521 -3.779889 -2.750655 -9.901455 3.265279 0.486325 0.391816 -7.749576 -1.652078 -20.635588 -1.269847 -5.206055 50.513343 1.820197 -10.356425 -9.609299 4.565093 -1.407194 0.357646 -3.888658 5.465913 8.179389 -0.855815 4.876740 2.008857 -2.426213 3.038494 -2.871456 -4.840810 -10.054669 7.083352 1.470429 -10.627781 0.326948 -18.703485 14.881117 -1.435815 -32.633763 2.740138 -8.873506 34.050955 -30.578110 -49.871646 20.001831 -1.456579 -24.852894 9.580759 -2.543129 -4.156712 35.220055 0.860208 1.461197 -117.902198 49.000556 -104.556081 -2.024448 8.686816 -26.027907 
-6.470736 101.651329 -17.304008 17.937208 -78.707570 -26.114009 2.173719 -8.468429 -8.091053 -3.426341 -21.420002 12.684616 -5.386815 -0.470030 -6.827512 2.778801 0.640598 0.913526 -7.069423 -2.948138 -19.995633 -2.358289 -8.043405 48.469760 0.849457 -11.719403 -11.540704 4.392243 -1.714392 0.496558 -4.142488 5.376082 8.152357 -1.492438 5.679942 1.794862 -2.154282 2.978929 -3.052439 -4.708486 -11.392545 6.888680 1.910116 -11.821495 0.269465 -18.392965 15.312990 -1.627794 -32.030783 3.488281 -9.757631 33.924456 -29.130872 -50.500488 21.764304 -0.584521 -24.079623 8.783011 -2.015782 -4.153791 34.650574 1.470089 0.905029 -120.824145 48.707336 -107.037211 -4.506812 8.059209 -25.140890 
